# xmcd
#
# Track frame offsets: 
#        150
#        23612
#        44577
#        61933
#        81967
#        103737
#        129765
#        153838
#        176723
#        202040
#        218477
#        238985
#        251633
#        274501
#        303796
#        319235
#        341179
#
# Disc length: 4775 seconds
#
# Revision: 0
# Processed by: cddbd v1.5.2PL0 Copyright (c) Steve Scherf et al.
# Submitted via: ExactAudioCopy v1.3
#
DISCID=ed12a511
DTITLE=Various Artist - Akella Presents - vol.133 - Blues-Rock  CD1
DYEAR=2018
DGENRE=Blues
TTITLE0=Coyote Kings - Backbone Shaker
TTITLE1=Harlis Sweetwater Band - Better Than Whiskey
TTITLE2=Frank Raven - Bloody Williamson Blues
TTITLE3=The Blues Mystery - Has Humankind Lost its Soul
TTITLE4=Fernando Noronha and Black Soul - I Like That Stuff
TTITLE5=Matt Joiner Band - Back When
TTITLE6=Too Slim and the Taildraggers - Trouble
TTITLE7=John Verity - Blues In Heaven
TTITLE8=Blue Haze - Long Autumn Blues
TTITLE9=Jorge Salan and The Majestic Jaywalkers - Who's Been Talking
TTITLE10=D Brown's Manchild - Honey
TTITLE11=Freddy And The Phantoms - Borderline Blues
TTITLE12=Crow Black Chicken - Bitter
TTITLE13=Eric Steckel - She's 19 Years Old
TTITLE14=Dan Patlansky - Never Long Enough
TTITLE15=Davide Pannozzo - Six Wires
TTITLE16=Blackberry Smoke - Till The Wheels Fall Off
EXTD=
EXTT0=
EXTT1=
EXTT2=
EXTT3=
EXTT4=
EXTT5=
EXTT6=
EXTT7=
EXTT8=
EXTT9=
EXTT10=
EXTT11=
EXTT12=
EXTT13=
EXTT14=
EXTT15=
EXTT16=
PLAYORDER=
